<?xml version="1.0" encoding="utf-8"?>
<!-- Generator: Adobe Illustrator 18.0.0, SVG Export Plug-In . SVG Version: 6.00 Build 0)  -->
<svg version="1.2" baseProfile="tiny" id="SPI_FRAM_Breakout"
   xmlns="http://www.w3.org/2000/svg" xmlns:xlink="http://www.w3.org/1999/xlink" x="0px" y="0px" viewBox="0 0 56.7 44"
   xml:space="preserve"
   width="20mm"
   height="15.5mm">
<g id="PCB_board">
  <g id="Board">
    <path fill="#0F7291" d="M53.9,0H2.7C1.2,0,0,1.2,0,2.8v38.4C0,42.7,1.1,44,2.7,44h51.2c1.5,0,2.8-1.2,2.8-2.8V2.8
      C56.6,1.2,55.4,0,53.9,0z M3,38.7c-0.6,0-1.1-0.5-1.1-1.1c0-0.6,0.5-1.1,1.1-1.1s1.1,0.5,1.1,1.1C4.1,38.2,3.6,38.7,3,38.7z
       M4.2,7.1c-1.6,0-2.8-1.3-2.8-2.8s1.3-2.8,2.8-2.8C5.8,1.5,7,2.8,7,4.3S5.7,7.1,4.2,7.1z M10.2,38.7c-0.6,0-1.1-0.5-1.1-1.1
      c0-0.6,0.5-1.1,1.1-1.1s1.1,0.5,1.1,1.1C11.3,38.2,10.8,38.7,10.2,38.7z M17.4,38.7c-0.6,0-1.1-0.5-1.1-1.1c0-0.6,0.5-1.1,1.1-1.1
      c0.6,0,1.1,0.5,1.1,1.1C18.5,38.2,18,38.7,17.4,38.7z M24.6,38.7c-0.6,0-1.1-0.5-1.1-1.1c0-0.6,0.5-1.1,1.1-1.1
      c0.6,0,1.1,0.5,1.1,1.1C25.7,38.2,25.2,38.7,24.6,38.7z M31.8,38.7c-0.6,0-1.1-0.5-1.1-1.1c0-0.6,0.5-1.1,1.1-1.1
      c0.6,0,1.1,0.5,1.1,1.1C32.9,38.2,32.4,38.7,31.8,38.7z M39,38.7c-0.6,0-1.1-0.5-1.1-1.1c0-0.6,0.5-1.1,1.1-1.1
      c0.6,0,1.1,0.5,1.1,1.1C40.1,38.2,39.6,38.7,39,38.7z M46.2,38.7c-0.6,0-1.1-0.5-1.1-1.1c0-0.6,0.5-1.1,1.1-1.1
      c0.6,0,1.1,0.5,1.1,1.1C47.3,38.2,46.8,38.7,46.2,38.7z M53.4,38.7c-0.6,0-1.1-0.5-1.1-1.1c0-0.6,0.5-1.1,1.1-1.1s1.1,0.5,1.1,1.1
      C54.5,38.2,54,38.7,53.4,38.7z M52.4,7.1c-1.6,0-2.8-1.3-2.8-2.8s1.3-2.8,2.8-2.8c1.6,0,2.8,1.3,2.8,2.8S53.9,7.1,52.4,7.1z"/>
  </g>
  <g id="Copper">
    <path fill="#9A916C" d="M4.1,37.6H3.8c0,0.5-0.4,0.8-0.8,0.8c-0.5,0-0.8-0.4-0.8-0.8c0-0.5,0.4-0.8,0.8-0.8c0.5,0,0.8,0.4,0.8,0.8
      H4.1h0.2c0-0.7-0.6-1.3-1.3-1.3s-1.3,0.6-1.3,1.3c0,0.7,0.6,1.3,1.3,1.3s1.3-0.6,1.3-1.3H4.1z"/>
    <path fill="#9A916C" d="M11.3,37.6H11c0,0.5-0.4,0.8-0.8,0.8c-0.5,0-0.8-0.4-0.8-0.8c0-0.5,0.4-0.8,0.8-0.8c0.5,0,0.8,0.4,0.8,0.8
      H11.3h0.2c0-0.7-0.6-1.3-1.3-1.3s-1.3,0.6-1.3,1.3c0,0.7,0.6,1.3,1.3,1.3s1.3-0.6,1.3-1.3H11.3z"/>
    <path fill="#9A916C" d="M18.5,37.6h-0.3c0,0.5-0.4,0.8-0.8,0.8c-0.5,0-0.8-0.4-0.8-0.8c0-0.5,0.4-0.8,0.8-0.8
      c0.5,0,0.8,0.4,0.8,0.8H18.5h0.2c0-0.7-0.6-1.3-1.3-1.3s-1.3,0.6-1.3,1.3c0,0.7,0.6,1.3,1.3,1.3c0.7,0,1.3-0.6,1.3-1.3H18.5z"/>
    <path fill="#9A916C" d="M25.7,37.6h-0.3c0,0.5-0.4,0.8-0.8,0.8c-0.5,0-0.8-0.4-0.8-0.8c0-0.5,0.4-0.8,0.8-0.8
      c0.5,0,0.8,0.4,0.8,0.8H25.7h0.2c0-0.7-0.6-1.3-1.3-1.3s-1.3,0.6-1.3,1.3c0,0.7,0.6,1.3,1.3,1.3c0.7,0,1.3-0.6,1.3-1.3H25.7z"/>
    <path fill="#9A916C" d="M32.9,37.6h-0.3c0,0.5-0.4,0.8-0.8,0.8c-0.5,0-0.8-0.4-0.8-0.8c0-0.5,0.4-0.8,0.8-0.8
      c0.5,0,0.8,0.4,0.8,0.8H32.9h0.2c0-0.7-0.6-1.3-1.3-1.3c-0.7,0-1.3,0.6-1.3,1.3c0,0.7,0.6,1.3,1.3,1.3c0.7,0,1.3-0.6,1.3-1.3H32.9
      z"/>
    <path fill="#9A916C" d="M40.1,37.6h-0.3c0,0.5-0.4,0.8-0.8,0.8c-0.5,0-0.8-0.4-0.8-0.8c0-0.5,0.4-0.8,0.8-0.8
      c0.5,0,0.8,0.4,0.8,0.8H40.1h0.2c0-0.7-0.6-1.3-1.3-1.3c-0.7,0-1.3,0.6-1.3,1.3c0,0.7,0.6,1.3,1.3,1.3c0.7,0,1.3-0.6,1.3-1.3H40.1
      z"/>
    <path fill="#9A916C" d="M47.3,37.6H47c0,0.5-0.4,0.8-0.8,0.8c-0.5,0-0.8-0.4-0.8-0.8c0-0.5,0.4-0.8,0.8-0.8c0.5,0,0.8,0.4,0.8,0.8
      H47.3h0.2c0-0.7-0.6-1.3-1.3-1.3c-0.7,0-1.3,0.6-1.3,1.3c0,0.7,0.6,1.3,1.3,1.3c0.7,0,1.3-0.6,1.3-1.3H47.3z"/>
    <path fill="#9A916C" d="M54.5,37.6h-0.3c0,0.5-0.4,0.8-0.8,0.8c-0.5,0-0.8-0.4-0.8-0.8c0-0.5,0.4-0.8,0.8-0.8
      c0.5,0,0.8,0.4,0.8,0.8H54.5h0.2c0-0.7-0.6-1.3-1.3-1.3c-0.7,0-1.3,0.6-1.3,1.3c0,0.7,0.6,1.3,1.3,1.3c0.7,0,1.3-0.6,1.3-1.3H54.5
      z"/>
  </g>
</g>
<g id="FRAM">
  <rect id="Chip_5_" x="21.3" y="12.5" fill="#333333" width="13.9" height="17"/>
  <g id="Left_legs">
    <rect id="Pin_4_1_" x="16.3" y="26.1" fill="#8C8C8C" width="5.8" height="1.4"/>
    <rect id="Pin_3_1_" x="16.3" y="22.2" fill="#8C8C8C" width="5.8" height="1.4"/>
    <rect id="Pin_2_1_" x="16.3" y="18.3" fill="#8C8C8C" width="5.8" height="1.4"/>
    <rect id="Pin_1_1_" x="16.3" y="14.4" fill="#8C8C8C" width="5.8" height="1.4"/>
  </g>
  <g id="Right_legs">
    <rect id="Pin_5_1_" x="34.5" y="26.1" fill="#8C8C8C" width="5.8" height="1.4"/>
    <rect id="Pin_6_1_" x="34.5" y="22.2" fill="#8C8C8C" width="5.8" height="1.4"/>
    <rect id="Pin_7_1_" x="34.5" y="18.3" fill="#8C8C8C" width="5.8" height="1.4"/>
    <rect id="Pin_8_1_" x="34.5" y="14.4" fill="#8C8C8C" width="5.8" height="1.4"/>
  </g>
</g>
<g id="Chip_1">
  <rect id="Chip_4_" x="10.2" y="21.8" fill="#333333" width="2.8" height="4.3"/>
  <rect id="Bottom_leg_3_" x="10.2" y="26" fill="#8C8C8C" width="2.8" height="1.5"/>
  <rect id="Top_leg_3_" x="10.2" y="20.3" fill="#8C8C8C" width="2.8" height="1.5"/>
</g>
<g id="Chip_2">
  <rect id="Chip_1_" x="43.7" y="20.6" fill="#E6AB00" width="2.8" height="4.3"/>
  <rect id="Bottom_leg_1_" x="43.7" y="24.8" fill="#8C8C8C" width="2.8" height="1.5"/>
  <rect id="Top_leg_1_" x="43.7" y="19.1" fill="#8C8C8C" width="2.8" height="1.5"/>
</g>
<g id="Silk_screen">
  <text transform="matrix(1 0 0 1 16.8794 4.9053)" fill="#FFFFFF" font-family="'OCRA'" font-size="3.9986">SPI FRAM</text>
  <text transform="matrix(1 0 0 1 16.8794 9.5118)" fill="#FFFFFF" font-family="'OCRA'" font-size="3.9986">Breakout</text>
  <text transform="matrix(0 -1 1 0 4.748 35.0183)" fill="#FFFFFF" font-family="'OCRA'" font-size="3.9986">VCC</text>
  <text transform="matrix(1 0 0 1 5.9702 42.7076)" fill="#FFFFFF" font-family="'OCRA'" font-size="3.9986">GND</text>
  <text transform="matrix(1 0 0 1 11.7114 35.4595)" fill="#FFFFFF" font-family="'OCRA'" font-size="3.9986">HOLD</text>
  <text transform="matrix(1 0 0 1 20.3389 42.7076)" fill="#FFFFFF" font-family="'OCRA'" font-size="3.9986">SCK</text>
  <text transform="matrix(1 0 0 1 26.1084 35.4595)" fill="#FFFFFF" font-family="'OCRA'" font-size="3.9986">MISO</text>
  <text transform="matrix(1 0 0 1 33.3037 42.7076)" fill="#FFFFFF" font-family="'OCRA'" font-size="3.9986">MOSI</text>
  <text transform="matrix(1 0 0 1 43.3594 35.4595)" fill="#FFFFFF" font-family="'OCRA'" font-size="3.9986">CS</text>
  <text transform="matrix(1 0 0 1 50.5566 35.4595)" fill="#FFFFFF" font-family="'OCRA'" font-size="3.9986">WP</text>
  <path fill="#FFFFFF" d="M14,13.2c0.2-1.2,0.3-1.8,0.4-1.8l0,0c-1.7-0.9-2.9-1.1-3.6-0.5c-0.7,0.6-1.1,0.4-1.2-0.5s-0.8-1.9-2-3.3
    c0,0-0.3,0.4-0.8,1.3c-0.5,0.8-0.7,2-0.4,3.6c0-0.2-0.5-0.4-1.3-0.5c-0.8-0.2-2,0.2-3.5,0.9v0.1C2.3,14.2,3.1,15,4.1,15
    s1.2,0.4,0.8,1.1c-0.5,0.7-0.6,1.5-0.4,2.4c0.2,0.8,0.2,1.3,0.2,1.3c1.7-0.5,2.8-1.2,3.3-1.9c0.4-0.8,0.6-1.2,0.5-1.3
    c0.9,1.4,1.9,2.2,2.8,2.3c1,0.1,1.5-0.2,1.6-1.1c0.1-0.8-0.2-1.6-0.9-2.3c-0.7-0.7-1.1-1-1.1-1C12.6,14.8,13.7,14.4,14,13.2z
     M5.5,13.6c-0.2-0.1-0.3-0.2-0.3-0.3c0-0.1,0.1-0.2,0.4-0.2c0.2,0,0.5,0,0.8,0c0.3,0.1,0.6,0.1,0.8,0.3c0.2,0.1,0.3,0.2,0.3,0.4
    c0,0.1-0.2,0.2-0.4,0.2c-0.2,0-0.4,0-0.8,0C5.9,13.8,5.7,13.7,5.5,13.6z M7.8,11.2C7.9,11,8,10.9,8.1,10.9c0.1,0,0.2,0.1,0.3,0.3
    c0.1,0.2,0.2,0.5,0.2,0.8s0,0.6-0.1,0.8c0,0.2-0.1,0.3-0.3,0.4c-0.1,0-0.2-0.1-0.3-0.3c-0.1-0.2-0.2-0.5-0.2-0.8
    C7.7,11.7,7.7,11.5,7.8,11.2z M9.1,13.4c0.2-0.2,0.4-0.3,0.7-0.4c0.3-0.1,0.5-0.2,0.8-0.2c0.2,0,0.4,0.1,0.4,0.2s0,0.2-0.2,0.4
    s-0.4,0.3-0.7,0.4C9.8,13.9,9.6,14,9.3,14c-0.2,0-0.4-0.1-0.4-0.2C8.9,13.6,9,13.5,9.1,13.4z M8.8,14.7c0.1-0.1,0.2,0,0.4,0.1
    s0.4,0.3,0.5,0.6c0.2,0.2,0.3,0.5,0.4,0.7c0.1,0.2,0.1,0.4,0,0.4c-0.1,0.1-0.2,0-0.4-0.1c-0.2-0.2-0.4-0.3-0.5-0.6
    c-0.2-0.2-0.3-0.5-0.4-0.7S8.7,14.7,8.8,14.7z M7.3,14.8c0.2-0.1,0.3-0.2,0.4-0.2s0.1,0.2,0.1,0.4s-0.1,0.5-0.2,0.8
    s-0.3,0.5-0.4,0.6c-0.2,0.2-0.3,0.2-0.4,0.2c-0.1-0.1-0.1-0.2-0.1-0.4s0.1-0.4,0.2-0.8C7,15.2,7.1,15,7.3,14.8z"/>
</g>
</svg>
